Coordinates
version=1
nRows=14
nColumns=28
inDegrees=yes

Units are S.I. units (second, meters, Newtons, ...)
Angles are in degrees.

endheader
time	pelvis_tilt	pelvis_list	pelvis_rotation	pelvis_tx	pelvis_ty	pelvis_tz	hip_flexion_r	hip_adduction_r	hip_rotation_r	knee_angle_r	ankle_angle_r	subtalar_angle_r	mtp_angle_r	hip_flexion_l	hip_adduction_l	hip_rotation_l	knee_angle_l	socket_flexion	socket_adduction	socket_rotation	socket_tx	socket_ty	socket_tz	foot_flex	lumbar_extension	lumbar_bending	lumbar_rotation
      0.80000000	     -3.34135866	     -6.92939810	      6.16737060	      0.36513319	      0.97889777	      0.25120332	     12.72132986	     12.76107011	      5.94840431	    -22.79697443	      1.81090607	    -24.83245464	      0.41194792	     25.74604268	    -10.30162802	     -6.46222086	    -66.58061544	      3.71639723	     -9.31299844	    -10.44141324	      0.00000000	      0.00826697	      0.00000000	     -1.21261698	     -6.29208759	      5.96029775	    -10.60226925
      0.80416667	     -3.41555805	     -6.73119725	      6.21291890	      0.37072903	      0.98005898	      0.25050970	     12.12881647	     12.48210418	      5.91096742	    -22.28011404	      1.65339037	    -24.75076960	      0.46922242	     26.66052787	     -9.87927199	     -6.33195060	    -66.62045606	      3.59481196	     -9.41864605	     -9.65087192	      0.00000000	      0.00902221	      0.00000000	     -1.22299705	     -6.21385827	      5.79134330	    -10.36887853
      0.80833333	     -3.46978344	     -6.52087669	      6.20446812	      0.37612230	      0.98125244	      0.24998673	     11.54597281	     12.23652275	      6.03818692	    -21.82568704	      1.60789427	    -24.68498175	      0.51867513	     27.51946503	     -9.43694577	     -6.12353174	    -66.56476405	      3.51009244	     -9.41732128	     -8.98359770	      0.00000000	      0.00971665	      0.00000000	     -1.24842006	     -6.21327746	      5.59463618	    -10.20180889
      0.81250000	     -3.51474350	     -6.31658122	      6.19473920	      0.38162595	      0.98243211	      0.24941836	     10.94612225	     11.98605758	      6.12468024	    -21.36976187	      1.52245900	    -24.62014617	      0.56092655	     28.33732883	     -9.00043004	     -5.92667798	    -66.46319159	      3.40300357	     -9.42034085	     -8.37573774	      0.00000000	      0.01043919	      0.00000000	     -1.27187106	     -6.17279557	      5.42213013	    -10.01955474
      0.81666667	     -3.57610749	     -6.12709646	      6.21621524	      0.38714885	      0.98356148	      0.24880213	     10.35193581	     11.74106198	      6.15974207	    -20.85306022	      1.34586111	    -24.57353113	      0.61706491	     29.12628045	     -8.57000301	     -5.73778511	    -66.28766380	      3.22578760	     -9.43906865	     -7.83825014	      0.00000000	      0.01100596	      0.00000000	     -1.28409785	     -6.14356825	      5.26230383	     -9.80481704
      0.82083333	     -3.61007305	     -5.92855695	      6.17605656	      0.39244745	      0.98467246	      0.24837280	      9.79897396	     11.52590479	      6.31284996	    -20.47597273	      1.29220243	    -24.51840012	      0.65332556	     29.89556844	     -8.14536482	     -5.50832201	    -66.09503806	      3.07421994	     -9.38732260	     -7.37575074	      0.00000000	      0.01169197	      0.00000000	     -1.31414319	     -6.16983374	      5.09057596	     -9.66067053
      0.82500000	     -3.67308519	     -5.73108477	      6.17461628	      0.39800802	      0.98577291	      0.24776252	      9.19919414	     11.27739256	      6.40640922	    -19.96685773	      1.19363915	    -24.46584902	      0.68344059	     30.64456815	     -7.69943788	     -5.31348068	    -65.83767654	      2.85983662	     -9.38294202	     -7.03308975	      0.00000000	      0.01243040	      0.00000000	     -1.32776049	     -6.10796156	      4.92712113	     -9.47227734
      0.82916667	     -3.73241346	     -5.54701098	      6.16387337	      0.40356591	      0.98684099	      0.24718629	      8.61517177	     11.04703774	      6.48538575	    -19.48756996	      1.05398778	    -24.41780080	      0.70965635	     31.36006036	     -7.27153206	     -5.10279756	    -65.52678901	      2.62537111	     -9.36329629	     -6.75948727	      0.00000000	      0.01315879	      0.00000000	     -1.34260051	     -6.05346017	      4.78322491	     -9.28193343
      0.83333333	     -3.66335346	     -5.34381852	      6.21963324	      0.40925116	      0.98814610	      0.24641612	      7.82506417	     10.78238086	      6.47774418	    -18.85752010	      0.47115091	    -24.70800338	      0.88002638	     31.78773578	     -6.75506786	     -4.70911143	    -64.91462284	      2.50583571	     -9.22131613	     -6.65474242	      0.00000000	      0.01328202	      0.00000000	     -1.33042658	     -6.12626010	      4.63750322	     -9.00774622
      0.83750000	     -3.72518688	     -5.16455120	      6.16936659	      0.41470122	      0.98911966	      0.24592851	      7.28298256	     10.57863897	      6.64265833	    -18.45392276	      0.46117930	    -24.68089360	      0.92206410	     32.47490760	     -6.35323036	     -4.52831394	    -64.56638282	      2.18376286	     -9.19480734	     -6.53485022	      0.00000000	      0.01411990	      0.00000000	     -1.35049254	     -6.08847919	      4.50287557	     -8.89296897
      0.84166667	     -3.74065829	     -4.97584709	      6.19103227	      0.42040482	      0.99022135	      0.24524742	      6.60160868	     10.33139703	      6.67153101	    -17.85670804	     -0.02908321	    -24.81528887	      1.02283104	     32.95098549	     -5.86679840	     -4.15221697	    -63.89834978	      1.99469096	     -9.04289231	     -6.56092660	      0.00000000	      0.01435506	      0.00000000	     -1.34279813	     -6.06715210	      4.34524786	     -8.65225233
      0.84583333	     -3.80756159	     -4.81296431	      6.13212853	      0.42586796	      0.99107525	      0.24478335	      6.08646380	     10.14508556	      6.82410379	    -17.48608385	     -0.00397205	    -24.81899704	      1.06071905	     33.58100343	     -5.48984141	     -3.96930227	    -63.48320387	      1.58190295	     -8.99029491	     -6.58301374	      0.00000000	      0.01509630	      0.00000000	     -1.33784749	     -6.02447657	      4.23036828	     -8.55365544
      0.85000000	     -3.79361646	     -4.60081429	      6.17320382	      0.43156967	      0.99216783	      0.24403879	      5.35822111	      9.87914616	      6.87731931	    -16.86157897	     -0.52498604	    -25.05125717	      1.14994389	     33.91948189	     -4.93368447	     -3.43682979	    -62.62256249	      1.41622202	     -8.72381380	     -6.79254743	      0.00000000	      0.01512661	      0.00000000	     -1.31916364	     -6.03708818	      4.04820870	     -8.34400256
      0.85416667	     -3.83833551	     -4.41849099	      6.13924935	      0.43712154	      0.99306182	      0.24351256	      4.76522504	      9.66641972	      7.04157272	    -16.37955451	     -0.71240840	    -25.17418167	      1.23288102	     34.39203442	     -4.49845222	     -3.12078479	    -61.94249246	      1.07956448	     -8.57630888	     -6.98512241	      0.00000000	      0.01563552	      0.00000000	     -1.31749029	     -6.01672496	      3.88943890	     -8.24066512
